HIERARCHY
ROOT hip
{
  OFFSET 0 0 0
  CHANNELS 6 Xposition Yposition Zposition Zrotation Yrotation Xrotation
  JOINT abdomen
  {
    OFFSET 0 20.6881 -0.73152
    CHANNELS 3 Zrotation Xrotation Yrotation
    JOINT chest
    {
      OFFSET 0 11.7043 -0.48768
      CHANNELS 3 Zrotation Xrotation Yrotation
      JOINT neck
      {
        OFFSET 0 22.1894 -2.19456
        CHANNELS 3 Zrotation Xrotation Yrotation
        JOINT head
        {
          OFFSET -0.24384 7.07133 1.2192
          CHANNELS 3 Zrotation Xrotation Yrotation
          JOINT leftEye
          {
            OFFSET 4.14528 8.04674 8.04672
            CHANNELS 3 Zrotation Xrotation Yrotation
            End Site
            {
              OFFSET 1 0 0
            }
          }
          JOINT rightEye
          {
            OFFSET -3.6576 8.04674 8.04672
            CHANNELS 3 Zrotation Xrotation Yrotation
            End Site
            {
              OFFSET 1 0 0
            }
          }
        }
      }
      JOINT rCollar
      {
        OFFSET -2.68224 19.2634 -4.8768
        CHANNELS 3 Zrotation Xrotation Yrotation
        JOINT rShldr
        {
          OFFSET -8.77824 -1.95073 1.46304
          CHANNELS 3 Zrotation Xrotation Yrotation
          JOINT rForeArm
          {
            OFFSET -28.1742 -1.7115 0.48768
            CHANNELS 3 Zrotation Xrotation Yrotation
            JOINT rHand
            {
              OFFSET -22.5879 0.773209 7.07136
              CHANNELS 3 Zrotation Xrotation Yrotation
              JOINT rThumb1
              {
                OFFSET -1.2192 -0.487915 3.41376
                CHANNELS 3 Zrotation Xrotation Yrotation
                JOINT rThumb2
                {
                  OFFSET -3.37035 -0.52449 3.41376
                  CHANNELS 3 Zrotation Xrotation Yrotation
                  End Site
                  {
                    OFFSET -1.78271 -1.18214 1.43049
                  }
                }
              }
              JOINT rIndex1
              {
                OFFSET -7.75947 0.938293 5.60832
                CHANNELS 3 Zrotation Xrotation Yrotation
                JOINT rIndex2
                {
                  OFFSET -2.54057 -0.884171 1.56538
                  CHANNELS 3 Zrotation Xrotation Yrotation
                  End Site
                  {
                    OFFSET -1.62519 -0.234802 1.16502
                  }
                }
              }
              JOINT rMid1
              {
                OFFSET -8.24714 1.18213 3.41376
                CHANNELS 3 Zrotation Xrotation Yrotation
                JOINT rMid2
                {
                  OFFSET -3.10165 -0.590103 1.0647
                  CHANNELS 3 Zrotation Xrotation Yrotation
                  End Site
                  {
                    OFFSET -2.48547 -0.328903 0.83742
                  }
                }
              }
              JOINT rRing1
              {
                OFFSET -8.82822 0.546677 1.51678
                CHANNELS 3 Zrotation Xrotation Yrotation
                JOINT rRing2
                {
                  OFFSET -2.60934 -0.819778 -0.0198488
                  CHANNELS 3 Zrotation Xrotation Yrotation
                  End Site
                  {
                    OFFSET -2.33842 -0.294052 0.168128
                  }
                }
              }
              JOINT rPinky1
              {
                OFFSET -8.27202 -0.0477905 -0.4584
                CHANNELS 3 Zrotation Xrotation Yrotation
                JOINT rPinky2
                {
                  OFFSET -1.82734 -0.647385 -0.700984
                  CHANNELS 3 Zrotation Xrotation Yrotation
                  End Site
                  {
                    OFFSET -1.69225 -0.51767 -0.607171
                  }
                }
              }
            }
          }
        }
      }
      JOINT lCollar
      {
        OFFSET 2.68224 19.2634 -4.8768
        CHANNELS 3 Zrotation Xrotation Yrotation
        JOINT lShldr
        {
          OFFSET 8.77824 -1.95073 1.46304
          CHANNELS 3 Zrotation Xrotation Yrotation
          JOINT lForeArm
          {
            OFFSET 28.1742 -1.7115 0.48768
            CHANNELS 3 Zrotation Xrotation Yrotation
            JOINT lHand
            {
              OFFSET 22.5879 0.773209 7.07136
              CHANNELS 3 Zrotation Xrotation Yrotation
              JOINT lThumb1
              {
                OFFSET 1.2192 -0.487915 3.41376
                CHANNELS 3 Zrotation Xrotation Yrotation
                JOINT lThumb2
                {
                  OFFSET 3.37035 -0.52449 3.41376
                  CHANNELS 3 Zrotation Xrotation Yrotation
                  End Site
                  {
                    OFFSET 1.78271 -1.18214 1.43049
                  }
                }
              }
              JOINT lIndex1
              {
                OFFSET 7.75947 0.938293 5.60832
                CHANNELS 3 Zrotation Xrotation Yrotation
                JOINT lIndex2
                {
                  OFFSET 2.54057 -0.884171 1.56538
                  CHANNELS 3 Zrotation Xrotation Yrotation
                  End Site
                  {
                    OFFSET 1.62519 -0.234802 1.16502
                  }
                }
              }
              JOINT lMid1
              {
                OFFSET 8.24714 1.18213 3.41376
                CHANNELS 3 Zrotation Xrotation Yrotation
                JOINT lMid2
                {
                  OFFSET 3.10165 -0.590103 1.0647
                  CHANNELS 3 Zrotation Xrotation Yrotation
                  End Site
                  {
                    OFFSET 2.48547 -0.328903 0.83742
                  }
                }
              }
              JOINT lRing1
              {
                OFFSET 8.82822 0.546677 1.51678
                CHANNELS 3 Zrotation Xrotation Yrotation
                JOINT lRing2
                {
                  OFFSET 2.60934 -0.819778 -0.0198488
                  CHANNELS 3 Zrotation Xrotation Yrotation
                  End Site
                  {
                    OFFSET 2.33842 -0.294052 0.168128
                  }
                }
              }
              JOINT lPinky1
              {
                OFFSET 8.27202 -0.0477905 -0.4584
                CHANNELS 3 Zrotation Xrotation Yrotation
                JOINT lPinky2
                {
                  OFFSET 1.82734 -0.647385 -0.700984
                  CHANNELS 3 Zrotation Xrotation Yrotation
                  End Site
                  {
                    OFFSET 1.69225 -0.51767 -0.607171
                  }
                }
              }
            }
          }
        }
      }
    }
  }
  JOINT rButtock
  {
    OFFSET -8.77824 4.35084 1.2192
    CHANNELS 3 Zrotation Xrotation Yrotation
    JOINT rThigh
    {
      OFFSET 0 -1.70687 -2.19456
      CHANNELS 3 Zrotation Xrotation Yrotation
      JOINT rShin
      {
        OFFSET 0 -36.8199 0.73152
        CHANNELS 3 Zrotation Xrotation Yrotation
        JOINT rFoot
        {
          OFFSET 0.73152 -45.1104 -5.12064
          CHANNELS 3 Zrotation Xrotation Yrotation
          End Site
          {
            OFFSET -1.1221 -3.69964 12.103
          }
        }
      }
    }
  }
  JOINT lButtock
  {
    OFFSET 8.77824 4.35084 1.2192
    CHANNELS 3 Zrotation Xrotation Yrotation
    JOINT lThigh
    {
      OFFSET 0 -1.70687 -2.19456
      CHANNELS 3 Zrotation Xrotation Yrotation
      JOINT lShin
      {
        OFFSET 0 -36.8199 0.73152
        CHANNELS 3 Zrotation Xrotation Yrotation
        JOINT lFoot
        {
          OFFSET -0.73152 -45.1104 -5.12064
          CHANNELS 3 Zrotation Xrotation Yrotation
          End Site
          {
            OFFSET 1.1221 -3.69964 12.103
          }
        }
      }
    }
  }
}
MOTION
Frames:	4
Frame Time:	0.00833333
55.4313 70.5869 118.702 178.287 -11.9712 -149.627 -6.06409 -16.8802 -0.293514 2.57669 7.22659 -0.149191 -3.73784 10.1928 5.05752 23.1532 -23.6789 14.3235 -0.0 0.0 0.0 -0.0 0.0 0.0 1.7166e-13 2.60806e-13 -3.29088e-13 80.7942 16.8644 1.89881 -12.4373 -5.76003 22.4595 -3.62027e-05 -0.171812 -0.0241466 -1.35353e-09 6.60865e-10 -5.13924e-09 -2.3456e-09 1.13913e-09 -8.88692e-09 -1.35353e-09 6.60868e-10 -5.13927e-09 7.73091 5.47488 0.417314 -1.35353e-09 6.60863e-10 -5.13924e-09 2.90554 0.965183 0.102902 -1.35352e-09 6.60863e-10 -5.13925e-09 10.2786 0.731801 0.0259123 -1.35353e-09 6.60862e-10 -5.13924e-09 2.22167 -0.733487 -0.20892 1.71851e-13 2.60806e-13 -3.29287e-13 -72.4373 31.5504 -7.64813 12.5857 -5.86796 -22.7493 0.0053977 2.09728 -0.294886 -2.09512e-09 2.05922e-09 4.87589e-10 -3.61546e-09 3.56354e-09 8.47604e-10 -2.09513e-09 2.05922e-09 4.87604e-10 -7.73091 5.47488 -0.417314 -2.09512e-09 2.05922e-09 4.87589e-10 -2.90554 0.965183 -0.102902 -2.09513e-09 2.05922e-09 4.87591e-10 -10.2786 0.731801 -0.0259123 -2.09512e-09 2.05922e-09 4.87592e-10 -2.22167 -0.733487 0.20892 -2.03217e-16 0.0 -3.88251e-19 -0.512418 -61.2776 -6.37297 -1.16326 63.6141 2.27573 -9.4783 -29.416 -15.2963 2.03217e-16 0.0 3.88251e-19 -21.4883 -60.654 -28.5824 1.44741 64.0721 -1.59611 -4.48405 -12.914 -15.5457
55.4345 70.6048 118.447 178.156 -13.1179 -149.854 -6.05639 -17.1129 -0.150265 2.60057 7.34791 -0.109967 -4.1253 10.2044 4.97241 23.4488 -23.661 14.2879 -0.0 0.0 0.0 -0.0 0.0 0.0 1.39693e-13 2.27036e-13 -2.48258e-13 80.7204 17.8307 1.25594 -12.6485 -5.91622 22.8682 2.00068e-05 -0.896371 -0.125948 -1.03846e-09 7.84733e-10 -4.78143e-09 -1.80244e-09 1.35438e-09 -8.26739e-09 -1.03846e-09 7.84735e-10 -4.78145e-09 7.73091 5.47488 0.417314 -1.03846e-09 7.84731e-10 -4.78143e-09 2.90554 0.965183 0.102902 -1.03845e-09 7.8473e-10 -4.78143e-09 10.2786 0.731801 0.0259123 -1.03847e-09 7.84731e-10 -4.78142e-09 2.22167 -0.733487 -0.20892 1.39858e-13 2.27039e-13 -2.48457e-13 -72.0934 32.6787 -7.63168 12.8267 -6.04725 -23.2187 0.00407748 1.73032 -0.243279 -1.86719e-09 2.10131e-09 1.00487e-09 -3.21997e-09 3.63661e-09 1.74277e-09 -1.8672e-09 2.10131e-09 1.00489e-09 -7.73091 5.47488 -0.417314 -1.86719e-09 2.10131e-09 1.00487e-09 -2.90554 0.965183 -0.102902 -1.8672e-09 2.10131e-09 1.00488e-09 -10.2786 0.731801 -0.0259123 -1.86719e-09 2.10131e-09 1.00488e-09 -2.22167 -0.733487 0.20892 -2.03217e-16 0.0 -3.88251e-19 -0.744927 -60.7194 -6.82033 -1.14357 63.3981 2.27324 -9.74647 -29.678 -15.6414 2.03217e-16 0.0 3.88251e-19 -21.6672 -60.1138 -28.9696 1.41878 63.753 -1.56532 -4.52725 -12.765 -15.82
55.468 70.6769 118.312 178.208 -13.9093 -149.69 -6.04112 -17.4563 0.0100584 2.65042 7.5712 -0.0687569 -4.55367 10.1913 4.88153 23.7797 -23.6497 14.2586 -0.0 0.0 0.0 -0.0 0.0 0.0 4.50868e-14 8.60703e-14 -1.03669e-13 80.6599 18.9881 0.487745 -12.9456 -6.13616 23.4529 -0.00200469 -1.73122 -0.243316 -1.88667e-10 3.74227e-10 -2.77865e-09 -3.32429e-10 6.46304e-10 -4.80423e-09 -1.88665e-10 3.74229e-10 -2.77866e-09 7.73091 5.47488 0.417314 -1.88669e-10 3.74227e-10 -2.77864e-09 2.90554 0.965183 0.102902 -1.8866e-10 3.74226e-10 -2.77865e-09 10.2786 0.731801 0.0259123 -1.88674e-10 3.74228e-10 -2.77864e-09 2.22167 -0.733487 -0.20892 4.51675e-14 8.6078e-14 -1.03868e-13 -71.6821 33.9112 -7.6782 13.1008 -6.25345 -23.7581 0.00292996 1.45284 -0.204248 -6.80508e-10 1.63357e-09 1.2284e-09 -1.17016e-09 2.82713e-09 2.1274e-09 -6.80512e-10 1.63357e-09 1.22841e-09 -7.73091 5.47488 -0.417314 -6.80506e-10 1.63357e-09 1.22839e-09 -2.90554 0.965183 -0.102902 -6.80513e-10 1.63357e-09 1.2284e-09 -10.2786 0.731801 -0.0259123 -6.80503e-10 1.63357e-09 1.2284e-09 -2.22167 -0.733487 0.20892 -2.03217e-16 0.0 -3.88251e-19 -0.876907 -59.9824 -7.18348 -1.10431 62.9098 2.24614 -9.95472 -30.0506 -15.8517 2.03217e-16 0.0 3.88251e-19 -21.6713 -59.4573 -29.1934 1.36912 63.1908 -1.51655 -4.52073 -12.6763 -15.9037
55.4593 70.9137 118.076 178.084 -14.9496 -149.787 -6.03306 -17.8719 0.162071 2.70423 7.80589 -0.0307365 -5.01631 10.1853 4.78892 24.1455 -23.646 14.2378 -0.0 0.0 0.0 -0.0 0.0 0.0 -5.5976e-14 -7.01033e-14 3.35663e-14 80.6851 20.1216 -0.425034 -13.2869 -6.3932 24.1306 -0.00638836 -2.47965 -0.348665 7.0301e-10 -1.48509e-10 -4.82771e-10 1.2111e-09 -2.55851e-10 -8.34766e-10 7.03012e-10 -1.48507e-10 -4.82779e-10 7.73091 5.47488 0.417314 7.03008e-10 -1.48508e-10 -4.82766e-10 2.90554 0.965183 0.102902 7.03014e-10 -1.48507e-10 -4.82771e-10 10.2786 0.731801 0.0259123 7.03004e-10 -1.48505e-10 -4.82758e-10 2.22167 -0.733487 -0.20892 -5.59897e-14 -7.00894e-14 3.33675e-14 -71.251 35.1605 -7.72708 13.3815 -6.46728 -24.3158 0.00204008 1.26051 -0.177188 6.75072e-10 9.89395e-10 1.24234e-09 1.17052e-09 1.71218e-09 2.1489e-09 6.75069e-10 9.89397e-10 1.24235e-09 -7.73091 5.47488 -0.417314 6.75075e-10 9.89397e-10 1.24233e-09 -2.90554 0.965183 -0.102902 6.75066e-10 9.89397e-10 1.24234e-09 -10.2786 0.731801 -0.0259123 6.75078e-10 9.89398e-10 1.24233e-09 -2.22167 -0.733487 0.20892 -2.03217e-16 0.0 -3.88251e-19 -0.967383 -59.1008 -7.50109 -1.04625 62.1319 2.19518 -10.1449 -30.2643 -16.0939 2.03217e-16 0.0 3.88251e-19 -21.5612 -58.6864 -29.3416 1.29965 62.3526 -1.45188 -4.43502 -12.4813 -15.8444
